<svg xmlns="http://www.w3.org/2000/svg" width="48" height="48" viewBox="0 0 48 48">
  <rect width="48" height="48" rx="8" fill="#1e1b4b"/>
  <rect x="6" y="10" width="4" height="24" rx="1" fill="#6366f1"/>
  <rect x="6" y="14" width="3" height="1.5" rx="0.5" fill="#c7d2fe"/>
  <rect x="6" y="18" width="3" height="1.5" rx="0.5" fill="#c7d2fe"/>
  <rect x="6" y="22" width="3" height="1.5" rx="0.5" fill="#c7d2fe"/>
  <rect x="6" y="26" width="3" height="1.5" rx="0.5" fill="#c7d2fe"/>
  <rect x="38" y="10" width="4" height="24" rx="1" fill="#6366f1"/>
  <rect x="39" y="14" width="3" height="1.5" rx="0.5" fill="#c7d2fe"/>
  <rect x="39" y="18" width="3" height="1.5" rx="0.5" fill="#c7d2fe"/>
  <rect x="39" y="22" width="3" height="1.5" rx="0.5" fill="#c7d2fe"/>
  <rect x="39" y="26" width="3" height="1.5" rx="0.5" fill="#c7d2fe"/>
  <rect x="10" y="30" width="28" height="3" rx="1" fill="#6366f1"/>
  <rect x="14" y="30.5" width="1" height="2" rx="0.3" fill="#c7d2fe"/>
  <rect x="18" y="30.5" width="1" height="2" rx="0.3" fill="#c7d2fe"/>
  <rect x="22" y="30.5" width="1" height="2" rx="0.3" fill="#c7d2fe"/>
  <rect x="26" y="30.5" width="1" height="2" rx="0.3" fill="#c7d2fe"/>
  <rect x="30" y="30.5" width="1" height="2" rx="0.3" fill="#c7d2fe"/>
  <rect x="34" y="30.5" width="1" height="2" rx="0.3" fill="#c7d2fe"/>
  <path d="M8 12 Q24 4 40 12" stroke="#818cf8" stroke-width="1.5" fill="none" stroke-linecap="round"/>
  <line x1="16" y1="9" x2="14" y2="30" stroke="#818cf8" stroke-width="0.8" stroke-linecap="round"/>
  <line x1="24" y1="7" x2="24" y2="30" stroke="#818cf8" stroke-width="0.8" stroke-linecap="round"/>
  <line x1="32" y1="9" x2="34" y2="30" stroke="#818cf8" stroke-width="0.8" stroke-linecap="round"/>
</svg>
